<?xml version="1.0" encoding="utf-8"?>
<!-- Generator: Adobe Illustrator 25.4.1, SVG Export Plug-In . SVG Version: 6.00 Build 0)  -->
<svg version="1.1" id="Capa_1" xmlns="http://www.w3.org/2000/svg" xmlns:xlink="http://www.w3.org/1999/xlink" x="0px" y="0px"
	 viewBox="0 0 512 512" style="enable-background:new 0 0 512 512;" xml:space="preserve">
<style type="text/css">
	.st0{fill:#EA0F0F;}
</style>
<path class="st0" d="M480,256.1h-64.3c-1-14.2-4.9-27.5-11.1-39.5c0.7-0.6,1.4-1.2,2.1-1.9l64-64c12.5-12.5,12.5-32.8,0-45.3
	s-32.8-12.5-45.3,0l-64,64c-0.7,0.7-1.3,1.4-1.9,2.1c-14.3-7.3-30.4-11.4-47.5-11.4H200.1c-17.1,0-33.3,4.1-47.5,11.4
	c-0.6-0.7-1.2-1.4-1.9-2.1l-64-64c-12.5-12.5-32.8-12.5-45.3,0l-0.1-0.1c-12.5,12.5-12.5,32.8,0,45.3l64,64c0.7,0.7,1.4,1.3,2.1,1.9
	c-6.1,12-10,25.4-11.1,39.5H32c-17.7,0-32,14.3-32,32s14.3,32,32,32h64c0,24.6,5.5,47.8,15.3,68.5c-2.1,1.4-4.1,2.9-6,4.8l-64,64
	c-12.5,12.5-12.5,32.8,0,45.3c12.5,12.5,32.8,12.5,45.3,0l63-63c24.5,21.8,55.8,36.2,90.3,39.6V240c0-8.8,7.2-16,16-16s16,7.2,16,16
	v239.3c34.5-3.4,65.8-17.8,90.3-39.6l63.1,63.1c12.5,12.5,32.8,12.5,45.3,0s12.5-32.8,0-45.3l-64-64c-1.8-1.9-3.8-3.5-6-4.8
	c9.9-20.8,15.4-44,15.4-68.6h64c17.7,0,32-14.3,32-32S497.7,256.1,480,256.1z M163.9,406.4c-15,0-27.2-12.2-27.2-27.2
	s12.2-27.2,27.2-27.2s27.2,12.2,27.2,27.2S178.9,406.4,163.9,406.4z M181.1,304.1c-15,0-27.2-12.2-27.2-27.2
	c0-15,12.2-27.2,27.2-27.2s27.2,12.2,27.2,27.2C208.4,291.9,196.2,304.1,181.1,304.1z M303.6,276.8c0-15,12.2-27.2,27.2-27.2
	s27.2,12.2,27.2,27.2c0,15-12.2,27.2-27.2,27.2S303.6,291.9,303.6,276.8z M348.1,406.4c-15,0-27.2-12.2-27.2-27.2
	s12.2-27.2,27.2-27.2s27.2,12.2,27.2,27.2S363.2,406.4,348.1,406.4z"/>
<path class="st0" d="M188.4,128h135.2c15.7,0,28.4-12.7,28.4-28.4V96c0-53-43-96-96-96s-96,43-96,96v3.6
	C160,115.3,172.7,128,188.4,128z"/>
</svg>
